<svg width="11" height="13" viewBox="0 0 11 13" fill="none" xmlns="http://www.w3.org/2000/svg">
<path opacity="0.3" d="M0.349206 13C0.256085 13 0.174603 12.9629 0.104762 12.8886C0.0349206 12.8143 0 12.7276 0 12.6286C0 12.5667 0.00582011 12.4986 0.0174603 12.4243L4.34762 0.408572C4.39418 0.284762 4.4582 0.185715 4.53968 0.111429C4.62116 0.0371431 4.74339 0 4.90635 0H6.09365C6.24497 0 6.36138 0.0371431 6.44286 0.111429C6.53598 0.185715 6.60582 0.284762 6.65238 0.408572L10.9651 12.4243C10.9884 12.4986 11 12.5667 11 12.6286C11 12.7276 10.9651 12.8143 10.8952 12.8886C10.8254 12.9629 10.7439 13 10.6508 13H9.76032C9.62064 13 9.51587 12.9629 9.44603 12.8886C9.38783 12.8143 9.34709 12.7462 9.32381 12.6843L8.36349 10.0471H2.63651L1.67619 12.6843C1.66455 12.7462 1.62381 12.8143 1.55397 12.8886C1.48413 12.9629 1.37937 13 1.23968 13H0.349206ZM3.14286 8.45H7.85714L5.5 1.85714L3.14286 8.45Z" fill="#141414"/>
</svg>
