<svg width="9" height="13" viewBox="0 0 9 13" fill="none" xmlns="http://www.w3.org/2000/svg">
<path opacity="0.3" d="M0.393536 13C0.268061 13 0.171103 12.9629 0.102662 12.8886C0.0342206 12.8019 0 12.6967 0 12.5729V0.445714C0 0.309524 0.0342206 0.204286 0.102662 0.13C0.171103 0.0433334 0.268061 0 0.393536 0H5.08175C5.93726 0 6.63308 0.154762 7.1692 0.464287C7.71673 0.761429 8.11597 1.17 8.36692 1.69C8.62928 2.21 8.76046 2.79191 8.76046 3.43571C8.76046 3.94333 8.68061 4.38286 8.52091 4.75429C8.37262 5.11333 8.18441 5.41048 7.95627 5.64571C7.72814 5.86857 7.5057 6.04191 7.28897 6.16571C7.73384 6.40095 8.12738 6.78476 8.46958 7.31714C8.82319 7.84952 9 8.49333 9 9.24857C9 9.92952 8.85741 10.5548 8.57224 11.1243C8.28707 11.6938 7.85932 12.1519 7.28897 12.4986C6.73004 12.8329 6.03422 13 5.20152 13H0.393536ZM1.67681 11.4957H4.97909C5.72053 11.4957 6.29087 11.279 6.69011 10.8457C7.08935 10.4124 7.28897 9.88 7.28897 9.24857C7.28897 8.59238 7.08935 8.05381 6.69011 7.63286C6.29087 7.19952 5.72053 6.98286 4.97909 6.98286H1.67681V11.4957ZM1.67681 5.49714H4.8251C5.55513 5.49714 6.10837 5.31762 6.48479 4.95857C6.86122 4.58714 7.04943 4.08571 7.04943 3.45429C7.04943 2.82286 6.86122 2.34 6.48479 2.00572C6.10837 1.67143 5.55513 1.50429 4.8251 1.50429H1.67681V5.49714Z" fill="#141414"/>
</svg>
