<svg width="19" height="15" viewBox="0 0 19 15" fill="none" xmlns="http://www.w3.org/2000/svg">
<g opacity="0.3">
<path d="M7.46167 15C7.36434 15 7.27918 14.9655 7.20618 14.8966C7.13318 14.8276 7.09668 14.7471 7.09668 14.6552C7.09668 14.5977 7.11493 14.5287 7.15143 14.4483L10.3512 0.310345C10.3877 0.241379 10.4364 0.172413 10.4972 0.103448C10.5702 0.0344828 10.6797 0 10.8257 0H11.5374C11.6348 0 11.7199 0.0344828 11.7929 0.103448C11.8659 0.172413 11.9024 0.252873 11.9024 0.344827C11.9024 0.390804 11.8903 0.45977 11.8659 0.551724L8.64791 14.6897C8.62357 14.7471 8.56882 14.8103 8.48366 14.8793C8.41066 14.9598 8.30725 15 8.17341 15H7.46167Z" fill="#141414"/>
<path d="M13.2303 13.1284C13.293 13.1284 13.361 13.1034 13.4341 13.0534C13.4969 13.0035 13.5543 12.966 13.6066 12.941L18.5453 8.87263C18.7021 8.74765 18.8171 8.62266 18.8903 8.49767C18.9634 8.36019 19 8.20395 19 8.02897V7.69151C19 7.51653 18.9634 7.36654 18.8903 7.24156C18.8171 7.11657 18.7021 6.98533 18.5453 6.84785L13.6066 2.79827C13.5543 2.76077 13.4969 2.71703 13.4341 2.66703C13.361 2.61704 13.293 2.59204 13.2303 2.59204C13.1467 2.59204 13.0735 2.62954 13.0108 2.70453C12.9481 2.76702 12.9168 2.86076 12.9168 2.98575V3.81066C12.9168 3.94815 12.9481 4.06689 13.0108 4.16688C13.0735 4.25437 13.1624 4.34186 13.2774 4.42935L17.4792 7.86024L13.2774 11.2911C13.1624 11.3911 13.0735 11.4849 13.0108 11.5724C12.9481 11.6598 12.9168 11.7786 12.9168 11.9286V12.7535C12.9168 12.866 12.9481 12.9597 13.0108 13.0347C13.0735 13.0972 13.1467 13.1284 13.2303 13.1284Z" fill="#141414"/>
<path d="M5.76967 13.1284C5.70696 13.1284 5.63902 13.1034 5.56585 13.0534C5.50314 13.0035 5.44565 12.966 5.39339 12.941L0.454676 8.87263C0.297891 8.74765 0.182916 8.62266 0.10975 8.49767C0.0365834 8.36019 0 8.20395 0 8.02897V7.69151C0 7.51653 0.0365834 7.36654 0.10975 7.24156C0.182916 7.11657 0.297891 6.98533 0.454676 6.84785L5.39339 2.79827C5.44565 2.76077 5.50314 2.71703 5.56585 2.66703C5.63902 2.61704 5.70696 2.59204 5.76967 2.59204C5.85329 2.59204 5.92646 2.62954 5.98917 2.70453C6.05189 2.76702 6.08324 2.86076 6.08324 2.98575V3.81066C6.08324 3.94815 6.05189 4.06689 5.98917 4.16688C5.92646 4.25437 5.83762 4.34186 5.72264 4.42935L1.52081 7.86024L5.72264 11.2911C5.83762 11.3911 5.92646 11.4849 5.98917 11.5724C6.05189 11.6598 6.08324 11.7786 6.08324 11.9286V12.7535C6.08324 12.866 6.05189 12.9597 5.98917 13.0347C5.92646 13.0972 5.85329 13.1284 5.76967 13.1284Z" fill="#141414"/>
</g>
</svg>
