<svg width="12" height="10" viewBox="0 0 12 10" fill="none" xmlns="http://www.w3.org/2000/svg">
<g opacity="0.3">
<path d="M0.393789 9.50018C0.357122 9.50018 0.325456 9.48684 0.298789 9.46018C0.272122 9.43351 0.258789 9.40184 0.258789 9.36518V8.84518C0.258789 8.82518 0.263789 8.78684 0.273789 8.73018C0.283789 8.67018 0.320456 8.61851 0.383789 8.57518L0.438789 8.53518C0.788789 8.28184 1.08046 8.06851 1.31379 7.89518C1.55046 7.72184 1.72712 7.57351 1.84379 7.45018C1.96379 7.32351 2.02379 7.21184 2.02379 7.11518C2.02379 7.06851 2.01546 7.02351 1.99879 6.98018C1.98212 6.93684 1.93046 6.91518 1.84379 6.91518C1.77712 6.91518 1.72546 6.93184 1.68879 6.96518C1.65212 6.99518 1.62546 7.03018 1.60879 7.07018C1.59212 7.11018 1.57879 7.14351 1.56879 7.17018C1.55212 7.21684 1.52546 7.24851 1.48879 7.26518C1.45546 7.27851 1.41546 7.28518 1.36879 7.28518H0.428789C0.398789 7.28518 0.372123 7.27518 0.348789 7.25518C0.328789 7.23184 0.318789 7.20518 0.318789 7.17518C0.322122 6.98518 0.362122 6.81518 0.438789 6.66518C0.518789 6.51184 0.627123 6.38018 0.763789 6.27018C0.900456 6.16018 1.06046 6.07684 1.24379 6.02018C1.42712 5.96018 1.62546 5.93018 1.83879 5.93018C2.14212 5.93018 2.40546 5.97518 2.62879 6.06518C2.85212 6.15184 3.02546 6.27851 3.14879 6.44518C3.27212 6.61184 3.33379 6.81351 3.33379 7.05018C3.33379 7.23351 3.28879 7.40351 3.19879 7.56018C3.10879 7.71684 2.98212 7.86684 2.81879 8.01018C2.65879 8.15018 2.47046 8.29518 2.25379 8.44518L2.21879 8.47018H3.27379C3.31046 8.47018 3.34212 8.48351 3.36879 8.51018C3.39546 8.53684 3.40879 8.56851 3.40879 8.60518V9.36518C3.40879 9.40184 3.39546 9.43351 3.36879 9.46018C3.34212 9.48684 3.31046 9.50018 3.27379 9.50018H0.393789Z" fill="#141414"/>
<path d="M1.34286 3.5C1.30619 3.5 1.27452 3.48667 1.24786 3.46C1.22119 3.43333 1.20786 3.40167 1.20786 3.365V1.345L0.647857 1.775C0.614524 1.79833 0.581191 1.80667 0.547857 1.8C0.514524 1.79 0.484524 1.76833 0.457857 1.735L0.0178572 1.165C0.00119056 1.13167 -0.00380955 1.09667 0.00285712 1.06C0.00952379 1.02 0.0295237 0.99 0.0628571 0.97L1.26786 0.0350001C1.28452 0.0216667 1.30119 0.0133335 1.31786 0.0100002C1.33452 0.00333345 1.35452 0 1.37786 0H2.32286C2.35952 0 2.39119 0.0133334 2.41786 0.0400001C2.44452 0.0666668 2.45786 0.0983334 2.45786 0.135V3.365C2.45786 3.40167 2.44452 3.43333 2.41786 3.46C2.39119 3.48667 2.35952 3.5 2.32286 3.5H1.34286Z" fill="#141414"/>
<path d="M5.49951 2H10.9995" stroke="#141414" stroke-width="1.5" stroke-linecap="round"/>
<path d="M6.49951 8H10.9995" stroke="#141414" stroke-width="1.5" stroke-linecap="round"/>
</g>
</svg>
