<svg width="7" height="4" viewBox="0 0 7 4" fill="none" xmlns="http://www.w3.org/2000/svg">
<path opacity="0.3" d="M3.69653 4C3.5145 4 3.41649 3.93782 3.40249 3.81347C3.40249 3.68912 3.43049 3.57858 3.4865 3.48187L5.29276 0.476684C5.37677 0.324698 5.46778 0.207254 5.56579 0.124352C5.67781 0.0414508 5.82483 0 6.00686 0H6.72096C6.83298 0 6.90999 0.0483593 6.95199 0.145078C7.008 0.227979 7.015 0.331607 6.973 0.455959L5.83883 3.39896C5.78283 3.56477 5.69881 3.70984 5.5868 3.8342C5.47478 3.94473 5.32776 4 5.14574 4H3.69653ZM0.294042 4C0.112016 4 0.0140019 3.93782 0 3.81347C0 3.68912 0.0280035 3.57858 0.0840115 3.48187L1.89027 0.476684C1.97428 0.324698 2.06529 0.207254 2.16331 0.124352C2.27532 0.0414508 2.41534 0 2.58337 0H3.31847C3.43049 0 3.5075 0.0483593 3.54951 0.145078C3.60552 0.227979 3.60552 0.331607 3.54951 0.455959L2.43635 3.39896C2.38034 3.56477 2.29633 3.70984 2.18431 3.8342C2.0723 3.94473 1.91827 4 1.72225 4H0.294042Z" fill="#141414"/>
</svg>
