<svg width="11" height="13" viewBox="0 0 11 13" fill="none" xmlns="http://www.w3.org/2000/svg">
<g opacity="0.3">
<path d="M5.53358 13C4.5597 13 3.74254 12.8435 3.08209 12.5306C2.42164 12.2056 1.91231 11.7903 1.5541 11.2847C1.20709 10.7671 1.02239 10.2194 1 9.64167C1 9.54537 1.03358 9.46111 1.10075 9.38889C1.1791 9.30463 1.26866 9.2625 1.3694 9.2625H2.22575C2.36007 9.2625 2.46082 9.29861 2.52798 9.37083C2.59515 9.44306 2.63993 9.52732 2.66231 9.62361C2.71828 9.9125 2.85261 10.2014 3.0653 10.4903C3.28918 10.7671 3.59701 11.0019 3.98881 11.1944C4.39179 11.375 4.90672 11.4653 5.53358 11.4653C6.49627 11.4653 7.20149 11.2847 7.64925 10.9236C8.10821 10.5505 8.33769 10.0569 8.33769 9.44306C8.33769 9.02176 8.21455 8.68472 7.96828 8.43194C7.73321 8.16713 7.3694 7.93241 6.87687 7.72778C6.38433 7.52315 5.74627 7.30046 4.96269 7.05972C4.14552 6.80694 3.46828 6.53009 2.93097 6.22917C2.39366 5.92824 1.99067 5.55509 1.72201 5.10972C1.46455 4.66435 1.33582 4.09861 1.33582 3.4125C1.33582 2.7625 1.49813 2.18472 1.82276 1.67917C2.14739 1.16157 2.61194 0.752315 3.21642 0.451389C3.83209 0.150463 4.57649 0 5.44963 0C6.14366 0 6.74813 0.102315 7.26306 0.306945C7.78918 0.499537 8.22575 0.764351 8.57276 1.10139C8.91978 1.42639 9.18284 1.78148 9.36194 2.16667C9.54105 2.53981 9.63619 2.90694 9.64739 3.26805C9.64739 3.35231 9.6194 3.43657 9.56343 3.52083C9.50746 3.59306 9.41791 3.62917 9.29478 3.62917H8.40485C8.32649 3.62917 8.24254 3.60509 8.15299 3.55694C8.07463 3.5088 8.01306 3.41852 7.96828 3.28611C7.90112 2.79259 7.64366 2.37732 7.1959 2.04028C6.74813 1.70324 6.16604 1.53472 5.44963 1.53472C4.72201 1.53472 4.12873 1.68519 3.66978 1.98611C3.22201 2.28704 2.99813 2.75648 2.99813 3.39444C2.99813 3.8037 3.10448 4.14676 3.31716 4.42361C3.52985 4.68843 3.86567 4.92315 4.32463 5.12778C4.78358 5.33241 5.38246 5.54907 6.12127 5.77778C7.01679 6.04259 7.75 6.32546 8.3209 6.62639C8.89179 6.91528 9.31157 7.28241 9.58022 7.72778C9.86007 8.16111 10 8.72083 10 9.40694C10 10.1653 9.8153 10.8153 9.4459 11.3569C9.07649 11.8866 8.55597 12.2958 7.88433 12.5847C7.22388 12.8616 6.4403 13 5.53358 13Z" fill="#141414"/>
<g filter="url(#filter0_d_342_2819)">
<path d="M1 7H10" stroke="#141414" stroke-width="1.5" stroke-linecap="round"/>
</g>
</g>
<defs>
<filter id="filter0_d_342_2819" x="0.25" y="6.25" width="10.5" height="2.25" filterUnits="userSpaceOnUse" color-interpolation-filters="sRGB">
<feFlood flood-opacity="0" result="BackgroundImageFix"/>
<feColorMatrix in="SourceAlpha" type="matrix" values="0 0 0 0 0 0 0 0 0 0 0 0 0 0 0 0 0 0 127 0" result="hardAlpha"/>
<feOffset dy="0.75"/>
<feComposite in2="hardAlpha" operator="out"/>
<feColorMatrix type="matrix" values="0 0 0 0 1 0 0 0 0 1 0 0 0 0 1 0 0 0 1 0"/>
<feBlend mode="normal" in2="BackgroundImageFix" result="effect1_dropShadow_342_2819"/>
<feBlend mode="normal" in="SourceGraphic" in2="effect1_dropShadow_342_2819" result="shape"/>
</filter>
</defs>
</svg>
