<svg width="8" height="13" viewBox="0 0 8 13" fill="none" xmlns="http://www.w3.org/2000/svg">
<path opacity="0.3" d="M3.81855 13C3.69376 13 3.58769 12.9594 3.50034 12.8781C3.42547 12.8084 3.38803 12.7155 3.38803 12.5994V6.28839C2.76408 6.28839 2.19629 6.14903 1.68465 5.87032C1.17302 5.59161 0.761215 5.21419 0.449242 4.73807C0.149747 4.26194 0 3.73355 0 3.1529C0 2.57226 0.149747 2.04387 0.449242 1.56774C0.761215 1.09161 1.17302 0.714194 1.68465 0.435485C2.19629 0.145162 2.76408 0 3.38803 0H7.56948C7.69427 0 7.7941 0.0406452 7.86897 0.121936C7.95632 0.191613 8 0.284516 8 0.400645V12.5994C8 12.7155 7.95632 12.8084 7.86897 12.8781C7.7941 12.9594 7.69427 13 7.56948 13H6.83221C6.70742 13 6.60135 12.9594 6.514 12.8781C6.43913 12.8084 6.40169 12.7155 6.40169 12.5994V1.56774H4.96356V12.5994C4.96356 12.7155 4.92612 12.8084 4.85125 12.8781C4.77637 12.9594 4.6703 13 4.53304 13H3.81855Z" fill="#141414"/>
</svg>
