<svg width="11" height="14" viewBox="0 0 11 14" fill="none" xmlns="http://www.w3.org/2000/svg">
<g opacity="0.3">
<path d="M1 12.5H10" stroke="#141414" stroke-width="1.5" stroke-linecap="round"/>
<path d="M5.5 10C4.56667 10 3.76111 9.8472 3.08333 9.5416C2.41667 9.23599 1.9 8.7725 1.53333 8.1511C1.17778 7.51953 1 6.70968 1 5.72156V0.366723C1 0.254669 1.03333 0.168082 1.1 0.106961C1.16667 0.0356538 1.26111 0 1.38333 0H2.23333C2.35556 0 2.45 0.0356538 2.51667 0.106961C2.59444 0.168082 2.63333 0.254669 2.63333 0.366723V5.75212C2.63333 6.75042 2.88889 7.48897 3.4 7.96774C3.91111 8.44652 4.61111 8.68591 5.5 8.68591C6.37778 8.68591 7.07222 8.44652 7.58333 7.96774C8.10555 7.48897 8.36666 6.75042 8.36666 5.75212V0.366723C8.36666 0.254669 8.4 0.168082 8.46667 0.106961C8.54444 0.0356538 8.63889 0 8.75 0H9.61667C9.72778 0 9.81667 0.0356538 9.88333 0.106961C9.96111 0.168082 10 0.254669 10 0.366723V5.72156C10 6.70968 9.81667 7.51953 9.45 8.1511C9.09444 8.7725 8.58333 9.23599 7.91667 9.5416C7.25 9.8472 6.44444 10 5.5 10Z" fill="#141414"/>
</g>
</svg>
