<svg width="21" height="17" viewBox="0 0 21 17" fill="none" xmlns="http://www.w3.org/2000/svg">
<g opacity="0.6">
<path d="M19 7V5.8125C19 4.70793 18.1046 3.8125 17 3.8125H10.4062C9.6296 3.8125 9 3.1829 9 2.40625V2.40625C9 1.6296 8.3704 1 7.59375 1H3C1.89543 1 1 1.89543 1 3V14C1 15.1046 1.89543 16 3 16H13" stroke="#141414" stroke-width="1.5"/>
<path d="M4.35401 10.119C4.14356 10.4757 4.26218 10.9355 4.61895 11.146C4.97573 11.3564 5.43555 11.2378 5.64599 10.881L4.35401 10.119ZM18.3675 14.6507L17.6583 14.4067L18.3675 14.6507ZM20.0879 9.65073L19.3787 9.4067L20.0879 9.65073ZM6.77434 7.49194L6.12835 7.11089L6.77434 7.49194ZM5.64599 10.881L7.42033 7.87299L6.12835 7.11089L4.35401 10.119L5.64599 10.881ZM7.63566 7.75H18.1967V6.25H7.63566V7.75ZM19.3787 9.4067L17.6583 14.4067L19.0767 14.8948L20.7971 9.89475L19.3787 9.4067ZM12.7419 16.75H16.4763V15.25H12.7419V16.75ZM17.6583 14.4067C17.4847 14.9113 17.0099 15.25 16.4763 15.25V16.75C17.6502 16.75 18.6947 16.0048 19.0767 14.8948L17.6583 14.4067ZM18.1967 7.75C19.055 7.75 19.658 8.59513 19.3787 9.4067L20.7971 9.89475C21.4115 8.10928 20.085 6.25 18.1967 6.25V7.75ZM7.42033 7.87299C7.46529 7.79677 7.54718 7.75 7.63566 7.75V6.25C7.01628 6.25 6.44303 6.57741 6.12835 7.11089L7.42033 7.87299Z" fill="#141414"/>
</g>
</svg>
